<svg width="50" height="50" xmlns="http://www.w3.org/2000/svg" xmlns:svg="http://www.w3.org/2000/svg">
 <g class="layer">
  <title>Layer 1</title>
  <path d="m24.96,1.05a1,1 0 0 0 -0.58,0.21l-23,17.95a1,1 0 0 0 1.24,1.58l1.38,-1.08l0,26.29a1,1 0 0 0 1,1l13.83,0a1,1 0 0 0 0.33,0l11.67,0a1,1 0 0 0 0.33,0l13.84,0a1,1 0 0 0 1,-1l0,-26.29l1.38,1.08a1,1 0 1 0 1.24,-1.58l-7.62,-5.94l0,-7.27l-6,0l0,2.59l-9.38,-7.33a1,1 0 0 0 -0.66,-0.21zm0.04,2.27l19,14.83l0,26.85l-12,0l0,-19l-14,0l0,19l-12,0l0,-26.85l19,-14.83zm12,4.68l2,0l0,3.71l-2,-1.56l0,-2.15zm-17,20l10,0l0,17l-10,0l0,-17z" fill="#ffffff" id="svg_1"/>
 </g>
</svg>